<svg width="2000" height="300" xmlns="http://www.w3.org/2000/svg">
  <!-- Frame 1 -->
  <rect x="0" y="0" width="400" height="300" fill="#f0f0f0"/>
  <g opacity="0" transform="translate(150, -2850)">
    <rect x="0" y="0" width="100" height="60" rx="8" fill="white" stroke="#ccc" stroke-width="1"/>
    <text x="50" y="35" text-anchor="middle" font-family="Arial" font-size="14" fill="#333">UI Element</text>
    <defs>
      <filter id="shadow1">
        <feDropShadow dx="2" dy="2" stdDeviation="3" flood-color="rgba(0,0,0,0.3)"/>
      </filter>
    </defs>
    <rect x="0" y="0" width="100" height="60" rx="8" fill="none" filter="url(#shadow1)"/>
  </g>
  <!-- Frame 2 -->
  <rect x="400" y="0" width="400" height="300" fill="#f0f0f0"/>
  <g opacity="1" transform="translate(550, 175)">
    <rect x="0" y="0" width="100" height="60" rx="8" fill="white" stroke="#ccc" stroke-width="1"/>
    <text x="50" y="35" text-anchor="middle" font-family="Arial" font-size="14" fill="#333">UI Element</text>
    <defs>
      <filter id="shadow2">
        <feDropShadow dx="2" dy="2" stdDeviation="3" flood-color="rgba(0,0,0,0.3)"/>
      </filter>
    </defs>
    <rect x="0" y="0" width="100" height="60" rx="8" fill="none" filter="url(#shadow2)"/>
  </g>
  <!-- Frame 3 -->
  <rect x="800" y="0" width="400" height="300" fill="#f0f0f0"/>
  <g opacity="1" transform="translate(950, 140)">
    <rect x="0" y="0" width="100" height="60" rx="8" fill="white" stroke="#ccc" stroke-width="1"/>
    <text x="50" y="35" text-anchor="middle" font-family="Arial" font-size="14" fill="#333">UI Element</text>
    <defs>
      <filter id="shadow3">
        <feDropShadow dx="2" dy="2" stdDeviation="3" flood-color="rgba(0,0,0,0.3)"/>
      </filter>
    </defs>
    <rect x="0" y="0" width="100" height="60" rx="8" fill="none" filter="url(#shadow3)"/>
  </g>
  <!-- Frame 4 -->
  <rect x="1200" y="0" width="400" height="300" fill="#f0f0f0"/>
  <g opacity="1" transform="translate(1350, 155)">
    <rect x="0" y="0" width="100" height="60" rx="8" fill="white" stroke="#ccc" stroke-width="1"/>
    <text x="50" y="35" text-anchor="middle" font-family="Arial" font-size="14" fill="#333">UI Element</text>
    <defs>
      <filter id="shadow4">
        <feDropShadow dx="2" dy="2" stdDeviation="3" flood-color="rgba(0,0,0,0.3)"/>
      </filter>
    </defs>
    <rect x="0" y="0" width="100" height="60" rx="8" fill="none" filter="url(#shadow4)"/>
  </g>
  <!-- Frame 5 -->
  <rect x="1600" y="0" width="400" height="300" fill="#f0f0f0"/>
  <g opacity="1" transform="translate(1750, 150)">
    <rect x="0" y="0" width="100" height="60" rx="8" fill="white" stroke="#ccc" stroke-width="1"/>
    <text x="50" y="35" text-anchor="middle" font-family="Arial" font-size="14" fill="#333">UI Element</text>
    <defs>
      <filter id="shadow5">
        <feDropShadow dx="2" dy="2" stdDeviation="3" flood-color="rgba(0,0,0,0.3)"/>
      </filter>
    </defs>
    <rect x="0" y="0" width="100" height="60" rx="8" fill="none" filter="url(#shadow5)"/>
  </g>
</svg>